<mxfile host="app.diagrams.net" modified="2022-04-15T12:38:31.143Z" agent="5.0 (Windows)" etag="59PzFivEdAZ66L60p_Vu" version="17.4.4" type="github">
  <diagram id="kgpKYQtTHZ0yAKxKKP6v" name="Page-1">
    <mxGraphModel dx="2076" dy="813" grid="1" gridSize="10" guides="1" tooltips="1" connect="1" arrows="1" fold="1" page="1" pageScale="1" pageWidth="850" pageHeight="1100" math="0" shadow="0">
      <root>
        <mxCell id="0" />
        <mxCell id="1" parent="0" />
        <mxCell id="xgt1RBYCPIYZove2wj8K-11" value="&lt;div&gt;sprints&lt;/div&gt;" style="edgeStyle=orthogonalEdgeStyle;curved=1;rounded=0;orthogonalLoop=1;jettySize=auto;html=1;exitX=0;exitY=0;exitDx=0;exitDy=127.5;exitPerimeter=0;entryX=1;entryY=0.25;entryDx=0;entryDy=0;" edge="1" parent="1" source="xgt1RBYCPIYZove2wj8K-2" target="xgt1RBYCPIYZove2wj8K-8">
          <mxGeometry relative="1" as="geometry">
            <mxPoint x="-170" y="638" as="targetPoint" />
          </mxGeometry>
        </mxCell>
        <mxCell id="xgt1RBYCPIYZove2wj8K-33" value="" style="edgeStyle=orthogonalEdgeStyle;curved=1;rounded=0;orthogonalLoop=1;jettySize=auto;html=1;startArrow=classic;startFill=1;endArrow=classic;endFill=1;entryX=0;entryY=0.5;entryDx=0;entryDy=0;" edge="1" parent="1" source="xgt1RBYCPIYZove2wj8K-2" target="xgt1RBYCPIYZove2wj8K-30">
          <mxGeometry relative="1" as="geometry" />
        </mxCell>
        <mxCell id="xgt1RBYCPIYZove2wj8K-2" value="&lt;div&gt;MongoDB instance&lt;/div&gt;&lt;div&gt;&lt;br&gt;&lt;/div&gt;&lt;div&gt;&lt;div&gt;Raw data&lt;/div&gt;Prepared data&lt;/div&gt;&lt;div&gt;&lt;br&gt;&lt;/div&gt;&lt;div&gt;Boards&lt;/div&gt;&lt;div&gt;Sprints&lt;/div&gt;&lt;div&gt;Issues&lt;/div&gt;" style="shape=cylinder3;whiteSpace=wrap;html=1;boundedLbl=1;backgroundOutline=1;size=15;" vertex="1" parent="1">
          <mxGeometry x="-50" y="510" width="160" height="180" as="geometry" />
        </mxCell>
        <mxCell id="xgt1RBYCPIYZove2wj8K-29" value="&lt;div&gt;sprints&lt;/div&gt;&lt;div&gt;issues&lt;br&gt;&lt;/div&gt;" style="edgeStyle=orthogonalEdgeStyle;curved=1;rounded=0;orthogonalLoop=1;jettySize=auto;html=1;startArrow=classic;startFill=1;endArrow=classic;endFill=1;" edge="1" parent="1" source="xgt1RBYCPIYZove2wj8K-7" target="xgt1RBYCPIYZove2wj8K-2">
          <mxGeometry relative="1" as="geometry" />
        </mxCell>
        <mxCell id="xgt1RBYCPIYZove2wj8K-7" value="&lt;div&gt;Data cleaning&lt;br&gt;&lt;/div&gt;&lt;div&gt;Data enrichment&lt;br&gt;&lt;/div&gt;" style="rounded=0;whiteSpace=wrap;html=1;" vertex="1" parent="1">
          <mxGeometry x="-50" y="380" width="160" height="60" as="geometry" />
        </mxCell>
        <mxCell id="xgt1RBYCPIYZove2wj8K-9" value="&lt;div&gt;Issues&lt;/div&gt;" style="edgeStyle=orthogonalEdgeStyle;curved=1;rounded=0;orthogonalLoop=1;jettySize=auto;html=1;entryX=-0.012;entryY=0.856;entryDx=0;entryDy=0;entryPerimeter=0;exitX=1;exitY=0.75;exitDx=0;exitDy=0;" edge="1" parent="1" source="xgt1RBYCPIYZove2wj8K-8" target="xgt1RBYCPIYZove2wj8K-2">
          <mxGeometry relative="1" as="geometry" />
        </mxCell>
        <mxCell id="xgt1RBYCPIYZove2wj8K-8" value="&lt;div&gt;get issues&lt;/div&gt;" style="rounded=0;whiteSpace=wrap;html=1;" vertex="1" parent="1">
          <mxGeometry x="-320" y="620" width="120" height="60" as="geometry" />
        </mxCell>
        <mxCell id="xgt1RBYCPIYZove2wj8K-12" value="sprints" style="edgeStyle=orthogonalEdgeStyle;curved=1;rounded=0;orthogonalLoop=1;jettySize=auto;html=1;entryX=-0.024;entryY=0.467;entryDx=0;entryDy=0;entryPerimeter=0;" edge="1" parent="1" source="xgt1RBYCPIYZove2wj8K-10" target="xgt1RBYCPIYZove2wj8K-2">
          <mxGeometry relative="1" as="geometry">
            <mxPoint x="-60" y="560" as="targetPoint" />
          </mxGeometry>
        </mxCell>
        <mxCell id="xgt1RBYCPIYZove2wj8K-10" value="&lt;div&gt;get sprints&lt;/div&gt;" style="rounded=0;whiteSpace=wrap;html=1;" vertex="1" parent="1">
          <mxGeometry x="-320" y="530" width="120" height="60" as="geometry" />
        </mxCell>
        <mxCell id="xgt1RBYCPIYZove2wj8K-14" value="&lt;div&gt;boards&lt;/div&gt;" style="edgeStyle=orthogonalEdgeStyle;curved=1;rounded=0;orthogonalLoop=1;jettySize=auto;html=1;" edge="1" parent="1" source="xgt1RBYCPIYZove2wj8K-13" target="xgt1RBYCPIYZove2wj8K-10">
          <mxGeometry relative="1" as="geometry" />
        </mxCell>
        <mxCell id="xgt1RBYCPIYZove2wj8K-13" value="get boards" style="rounded=0;whiteSpace=wrap;html=1;" vertex="1" parent="1">
          <mxGeometry x="-320" y="440" width="120" height="60" as="geometry" />
        </mxCell>
        <mxCell id="xgt1RBYCPIYZove2wj8K-17" value="&lt;div&gt;API&lt;/div&gt;" style="edgeStyle=orthogonalEdgeStyle;curved=1;rounded=0;orthogonalLoop=1;jettySize=auto;html=1;endArrow=none;endFill=0;entryX=0;entryY=0.5;entryDx=0;entryDy=0;" edge="1" parent="1" source="xgt1RBYCPIYZove2wj8K-15" target="xgt1RBYCPIYZove2wj8K-13">
          <mxGeometry relative="1" as="geometry" />
        </mxCell>
        <mxCell id="xgt1RBYCPIYZove2wj8K-15" value="Public Jira repositories" style="ellipse;whiteSpace=wrap;html=1;" vertex="1" parent="1">
          <mxGeometry x="-510" y="580" width="120" height="80" as="geometry" />
        </mxCell>
        <mxCell id="xgt1RBYCPIYZove2wj8K-18" value="&lt;div&gt;API&lt;/div&gt;" style="edgeStyle=orthogonalEdgeStyle;curved=1;rounded=0;orthogonalLoop=1;jettySize=auto;html=1;endArrow=none;endFill=0;" edge="1" parent="1" source="xgt1RBYCPIYZove2wj8K-16" target="xgt1RBYCPIYZove2wj8K-13">
          <mxGeometry relative="1" as="geometry" />
        </mxCell>
        <mxCell id="xgt1RBYCPIYZove2wj8K-26" value="&lt;div&gt;CSV&lt;/div&gt;" style="edgeStyle=orthogonalEdgeStyle;curved=1;rounded=0;orthogonalLoop=1;jettySize=auto;html=1;entryX=0;entryY=0.5;entryDx=0;entryDy=0;" edge="1" parent="1" source="xgt1RBYCPIYZove2wj8K-16" target="xgt1RBYCPIYZove2wj8K-22">
          <mxGeometry relative="1" as="geometry" />
        </mxCell>
        <mxCell id="xgt1RBYCPIYZove2wj8K-16" value="Proprietary Jira repositories" style="ellipse;whiteSpace=wrap;html=1;" vertex="1" parent="1">
          <mxGeometry x="-540" y="430" width="120" height="80" as="geometry" />
        </mxCell>
        <mxCell id="xgt1RBYCPIYZove2wj8K-24" value="" style="edgeStyle=orthogonalEdgeStyle;curved=1;rounded=0;orthogonalLoop=1;jettySize=auto;html=1;entryX=0;entryY=0;entryDx=0;entryDy=52.5;entryPerimeter=0;" edge="1" parent="1" source="xgt1RBYCPIYZove2wj8K-22" target="xgt1RBYCPIYZove2wj8K-2">
          <mxGeometry relative="1" as="geometry">
            <mxPoint x="-60" y="560" as="targetPoint" />
            <Array as="points">
              <mxPoint x="-120" y="380" />
              <mxPoint x="-120" y="563" />
            </Array>
          </mxGeometry>
        </mxCell>
        <mxCell id="xgt1RBYCPIYZove2wj8K-22" value="transform CSV data" style="rounded=0;whiteSpace=wrap;html=1;" vertex="1" parent="1">
          <mxGeometry x="-320" y="350" width="120" height="60" as="geometry" />
        </mxCell>
        <mxCell id="xgt1RBYCPIYZove2wj8K-36" value="Selected models" style="edgeStyle=orthogonalEdgeStyle;curved=1;rounded=0;orthogonalLoop=1;jettySize=auto;html=1;startArrow=none;startFill=0;endArrow=classic;endFill=1;exitX=0.789;exitY=1.006;exitDx=0;exitDy=0;entryX=0.5;entryY=0;entryDx=0;entryDy=0;exitPerimeter=0;" edge="1" parent="1" source="xgt1RBYCPIYZove2wj8K-30" target="xgt1RBYCPIYZove2wj8K-31">
          <mxGeometry relative="1" as="geometry" />
        </mxCell>
        <mxCell id="xgt1RBYCPIYZove2wj8K-37" value="Model tuning" style="edgeStyle=orthogonalEdgeStyle;curved=1;rounded=0;orthogonalLoop=1;jettySize=auto;html=1;startArrow=classic;startFill=1;endArrow=classic;endFill=1;entryX=0.5;entryY=0;entryDx=0;entryDy=0;exitX=0.21;exitY=0.997;exitDx=0;exitDy=0;exitPerimeter=0;" edge="1" parent="1" source="xgt1RBYCPIYZove2wj8K-30" target="xgt1RBYCPIYZove2wj8K-32">
          <mxGeometry relative="1" as="geometry" />
        </mxCell>
        <mxCell id="xgt1RBYCPIYZove2wj8K-30" value="&lt;div&gt;Model training pipeline&lt;br&gt;&lt;/div&gt;" style="rounded=0;whiteSpace=wrap;html=1;" vertex="1" parent="1">
          <mxGeometry x="170" y="380" width="390" height="160" as="geometry" />
        </mxCell>
        <mxCell id="xgt1RBYCPIYZove2wj8K-31" value="&lt;div&gt;Prediction&lt;/div&gt;" style="rounded=0;whiteSpace=wrap;html=1;" vertex="1" parent="1">
          <mxGeometry x="395" y="590" width="165" height="90" as="geometry" />
        </mxCell>
        <mxCell id="xgt1RBYCPIYZove2wj8K-32" value="&lt;div&gt;Performance analysis&lt;/div&gt;" style="rounded=0;whiteSpace=wrap;html=1;" vertex="1" parent="1">
          <mxGeometry x="170" y="590" width="165" height="90" as="geometry" />
        </mxCell>
      </root>
    </mxGraphModel>
  </diagram>
</mxfile>
